<svg xmlns="http://www.w3.org/2000/svg" width="26" height="23" viewBox="0 0 26 23"><g><g opacity=".5"><path fill="#f1edea" d="M21.34 1.643H4.66L1.872 21.357h22.253zM22.75 0L26 23H0L3.25 0zm-4.16 6.387c-.467 3.884-2.748 6.756-5.59 6.756-2.842 0-5.123-2.872-5.589-6.756a1.634 1.634 0 0 1-.91-1.458c0-.908.726-1.643 1.624-1.643.898 0 1.625.735 1.625 1.643 0 .562-.297 1.033-.724 1.33C9.42 9.209 11.08 11.5 13 11.5c1.922 0 3.58-2.29 3.974-5.241-.427-.297-.724-.768-.724-1.33 0-.908.727-1.643 1.625-1.643S19.5 4.02 19.5 4.929c0 .645-.376 1.19-.91 1.458z"/></g></g></svg>