<svg xmlns="http://www.w3.org/2000/svg" width="55" height="67" viewBox="0 0 55 67"><g><g><path fill="#816fca" d="M30.877 7.629v.057c0 1.57-1.283 2.843-2.866 2.843H15.41c-1.583 0-2.866-1.273-2.866-2.843v-.057c0-1.57 1.283-2.843 2.866-2.843h1.486c.794 0 1.438-.639 1.438-1.426v-.048C18.334 1.483 19.828 0 21.672 0h.077c1.844 0 3.339 1.483 3.339 3.312v.048c0 .787.643 1.426 1.437 1.426h1.486c1.583 0 2.866 1.273 2.866 2.843zM23.158 3.35c0-.793-.648-1.435-1.447-1.435-.8 0-1.448.642-1.448 1.435s.648 1.436 1.448 1.436c.799 0 1.447-.643 1.447-1.436zm4.996 56.95H3.86C1.73 60.3 0 58.586 0 56.472V10.53C0 8.415 1.73 6.7 2.896 6.7h7.82c-.065.319-.1.648-.1.987 0 2.622 2.15 4.756 4.795 4.756h12.601A4.794 4.794 0 0 0 32.712 6.7h5.884c3.097 0 4.825 1.715 4.825 3.829V39.29c-.321-.02-.64-.048-.965-.048-1.335 0-2.624.187-3.86.504V17.229H4.826v38.286h22.24a15.096 15.096 0 0 0 1.088 4.785zM55 54.558C55 61.429 49.383 67 42.456 67c-6.928 0-12.544-5.57-12.544-12.443 0-6.872 5.616-12.443 12.544-12.443 6.927 0 12.543 5.571 12.543 12.444zm-4.507-5.26a1.94 1.94 0 0 0-2.724.159l-6.502 7.256-3.394-2.693a1.939 1.939 0 0 0-2.712.3c-.667.824-.531 2.03.3 2.69l4.825 3.828c.355.282.781.42 1.205.42.533 0 1.063-.218 1.443-.643l7.72-8.614c.707-.79.636-2-.161-2.703zM33.772 33.5H8.685a.961.961 0 0 1-.965-.957v-.957c0-.528.432-.957.965-.957h25.087c.533 0 .965.429.965.957v.957a.961.961 0 0 1-.965.957zm0-8.614H8.685a.961.961 0 0 1-.965-.957v-.957c0-.529.432-.958.965-.958h25.087c.533 0 .965.43.965.958v.957a.961.961 0 0 1-.965.957zm-4.825 16.271H8.685a.96.96 0 0 1-.965-.957v-.957c0-.528.432-.957.965-.957h20.262c.533 0 .965.429.965.957v.957a.961.961 0 0 1-.965.957zm-1.93 8.615H8.686a.961.961 0 0 1-.965-.958v-.957c0-.528.432-.957.965-.957h18.333c.532 0 .965.429.965.957v.957a.961.961 0 0 1-.965.958z"/></g></g></svg>