<svg xmlns="http://www.w3.org/2000/svg" width="59" height="67" viewBox="0 0 59 67"><g><g><path fill="#816fca" d="M.368 11.556c-1.251-3.79.816-7.89 4.609-9.14 3.793-1.251 7.897.815 9.148 4.605l14.233 43.102a9.515 9.515 0 0 0-4.145-.157L10.433 8.238a3.356 3.356 0 0 0-6.374 2.101 1.945 1.945 0 0 1-3.692 1.217zM58.9 46.604a1.942 1.942 0 0 1-1.236 2.452l-22.6 7.451c-.015-.045-.023-.09-.038-.135a9.514 9.514 0 0 0-1.9-3.316l23.32-7.688a1.944 1.944 0 0 1 2.454 1.236zM33.18 56.98a7.628 7.628 0 0 1-4.858 9.635 7.637 7.637 0 0 1-9.643-4.855 7.627 7.627 0 0 1 4.858-9.635 7.636 7.636 0 0 1 9.643 4.855zm-3.625 1.195a3.818 3.818 0 0 0-7.251 2.39 3.818 3.818 0 0 0 7.25-2.39zm20.997-42.045l7.917 23.976a.97.97 0 0 1-.618 1.226l-24.919 8.215a.971.971 0 0 1-1.227-.618l-7.917-23.975a.97.97 0 0 1 .618-1.227l24.919-8.215a.972.972 0 0 1 1.227.618zM47.256 30.06l-8.485-4.665-4.04 8.794 2.675 1.23 1.747-3.805 3.153 9.55 3.018-.995-3.153-9.548 3.668 2.017zm-7.8-13.52l-15.93 5.252a.622.622 0 0 1-.785-.394l-5.062-15.33a.62.62 0 0 1 .395-.784l4.312-1.421.04.018.018-.037 2.29-.755 1.886 5.71 2.583-.851-1.885-5.711 2.29-.755.036.02.021-.039 4.34-1.431a.622.622 0 0 1 .785.395l5.062 15.329a.622.622 0 0 1-.395.784z"/></g></g></svg>