<svg xmlns="http://www.w3.org/2000/svg" width="25" height="22" viewBox="0 0 25 22"><g><g opacity=".5"><path fill="#f1edea" d="M24.999 7.045c0 2.171-1.116 3.86-2.089 5.091l-6.757 7.882c-1.095 1.277-2.538 1.98-4.064 1.98-1.592 0-3.125-.796-4.207-2.18l-6.005-7.687C.993 10.902.001 9.241.001 7.045 0 3.16 3.008 0 6.705 0c1.568 0 3.093.58 4.293 1.636.765.671 1.2.945 1.502.945.303 0 .738-.274 1.5-.945A6.512 6.512 0 0 1 18.296.001c3.696 0 6.704 3.159 6.704 7.044zm-1.62 0c0-2.945-2.28-5.342-5.085-5.342a4.935 4.935 0 0 0-3.252 1.24c-.967.85-1.693 1.342-2.542 1.342-.848 0-1.575-.492-2.542-1.342a4.93 4.93 0 0 0-3.253-1.24c-2.803 0-5.084 2.397-5.084 5.343 0 1.689.817 3.043 1.53 4.033l5.984 7.66c.784 1.003 1.834 1.557 2.955 1.557 1.06 0 2.075-.504 2.859-1.417l6.736-7.857c.827-1.047 1.694-2.36 1.694-3.977z"/></g></g></svg>