<svg xmlns="http://www.w3.org/2000/svg" width="23" height="23" viewBox="0 0 23 23"><g><g opacity=".5"><path fill="#f1edea" d="M5.031 7.907c0-2.082.654-4.047 1.842-5.531C8.097.844 9.74 0 11.5 0c3.566 0 6.469 3.548 6.469 7.906 0 4.36-2.902 7.907-6.469 7.907s-6.469-3.547-6.469-7.906zm1.437 0c0 3.566 2.258 6.469 5.032 6.469s5.031-2.903 5.031-6.47c0-3.566-2.257-6.468-5.031-6.468-2.774 0-5.032 2.902-5.032 6.469zM23 20.844a2.159 2.159 0 0 1-2.156 2.157H2.156A2.16 2.16 0 0 1 0 20.844a6.476 6.476 0 0 1 6.469-6.469.718.718 0 1 1 0 1.438 5.038 5.038 0 0 0-5.032 5.031.72.72 0 0 0 .72.719h18.687a.72.72 0 0 0 .719-.719 5.037 5.037 0 0 0-5.032-5.032.718.718 0 1 1 0-1.437 6.476 6.476 0 0 1 6.47 6.47z"/></g></g></svg>