<svg xmlns="http://www.w3.org/2000/svg" width="23" height="23" viewBox="0 0 23 23"><g><g opacity=".5"><path fill="#f1edea" d="M23 8.625a8.625 8.625 0 0 1-12.662 7.62l-5.995 5.993.001.002A2.537 2.537 0 1 1 .76 18.656l-.005-.004 5.998-5.996A8.576 8.576 0 0 1 5.75 8.625a8.626 8.626 0 0 1 17.25 0zm-13.758 6.92a8.687 8.687 0 0 1-1.793-1.795l-5.797 5.798.006.006a1.263 1.263 0 0 0 .878 2.177c.358 0 .679-.15.91-.39zm12.32-6.92a7.189 7.189 0 0 0-14.375 0 7.189 7.189 0 0 0 14.376 0zm-6.828-4.672a.36.36 0 0 1-.359.36 4.313 4.313 0 0 0-4.312 4.312.36.36 0 1 1-.72 0 5.031 5.031 0 0 1 5.032-5.031c.198 0 .36.16.36.359z"/></g></g></svg>