<svg xmlns="http://www.w3.org/2000/svg" width="61" height="59" viewBox="0 0 61 59"><g><g><path fill="#816fca" d="M13.796 18.919l6.625 12.36-3.818-2.08-5.053 8.318c-2.808.038-5.812-.089-7.749-1.156-1.966-1.083-5.053-4.197-3.256-7.393l3.593-6.93L.32 19.034zM9.304 39.235l16.395.115v14.44h-8.647c-3.219.077-6.326-.424-7.973-2.542L.882 36.001c2.545 2.849 5.876 3.388 8.422 3.234zm36.72-19.413l-13.95-.158 3.658-2.354-4.776-8.482c1.328-2.49 2.895-5.075 4.76-6.263 1.895-1.206 6.096-2.415 8.001.717l4.28 6.524 4.46-1.906zM30.552 6.018l-8.05 14.38-12.543-7 4.192-7.614C15.646 2.912 17.587.42 20.225-.004l17.22.173c-3.709.86-5.792 3.532-6.892 5.849zm.403 41.543l6.9-12.207.272 4.362 9.683-.093c1.52 2.376 3.006 5.01 3.133 7.228.13 2.253-.857 6.538-4.5 6.698l-7.743.605-.507 4.851zM50.45 40.63l-8.59-14.06L54.02 18.92l4.582 7.383c1.77 2.707 2.995 5.625 2.084 8.154l-8.5 15.079c1.052-3.683-.26-6.813-1.738-8.905z"/></g></g></svg>