<svg xmlns="http://www.w3.org/2000/svg" width="18" height="16" viewBox="0 0 18 16"><g><g opacity=".4"><path fill="#2c3e50" d="M18 6.87v.764a.374.374 0 0 1-.375.371H14.91v2.687c0 .205-.168.371-.375.371h-.773a.373.373 0 0 1-.376-.37V8.005h-2.714a.374.374 0 0 1-.376-.372V6.87c0-.206.17-.372.376-.372h2.714V3.812c0-.204.168-.37.376-.37h.773c.207 0 .375.166.375.37v2.686h2.714c.206 0 .375.166.375.371zm-7.668 5.355c0 1.591-1.224 2.97-3.116 3.514a7.09 7.09 0 0 1-1.953.262 9.016 9.016 0 0 1-2.19-.26C1.741 15.41.756 14.78.297 13.967A2.244 2.244 0 0 1 0 12.855c0-.4.097-.804.287-1.204.73-1.538 2.65-2.572 4.78-2.572h.061a1.85 1.85 0 0 1-.258-.94c0-.164.022-.33.066-.5-2.233-.05-3.904-1.668-3.904-3.803C1.032 2.33 2.25.863 3.99.27A4.896 4.896 0 0 1 5.563 0h4.775c.163 0 .306.104.357.257a.367.367 0 0 1-.137.415L9.49 1.44a.375.375 0 0 1-.22.07h-.383c.493.585.783 1.419.783 2.358 0 1.035-.53 2.014-1.491 2.76-.744.573-.774.73-.774 1.058.01.18.528.767 1.099 1.167 1.331.932 1.827 1.846 1.828 3.373zm-5.078 2.278c2.057 0 3.099-.702 3.099-2.085 0-.131-.016-.267-.049-.402-.138-.538-.636-.873-1.389-1.38l-.322-.22a3.688 3.688 0 0 0-1.024-.154h-.044c-1.625 0-3.051.975-3.051 2.085 0 1.21 1.22 2.156 2.78 2.156zM3.497 3.78c.185 1.397 1.216 2.606 2.25 2.637h.018c.388 0 .716-.152.971-.44.398-.448.575-1.185.47-1.97-.185-1.399-1.195-2.563-2.25-2.594h-.043c-.374 0-.706.152-.96.439-.393.443-.56 1.146-.456 1.928z"/></g></g></svg>