<svg xmlns="http://www.w3.org/2000/svg" width="13" height="16" viewBox="0 0 13 16"><g><g opacity=".4"><path fill="#2c3e50" d="M6.894 0C2.31 0 0 3.132 0 5.743 0 7.323.628 8.73 1.975 9.253c.221.086.42.003.483-.23.045-.16.15-.567.197-.737.065-.231.04-.31-.139-.513-.388-.436-.637-1-.637-1.802 0-2.323 1.824-4.402 4.75-4.402 2.59 0 4.013 1.508 4.013 3.522 0 2.65-1.231 4.887-3.058 4.887-1.01 0-1.764-.795-1.523-1.77.29-1.165.852-2.421.852-3.262 0-.752-.424-1.38-1.3-1.38-1.032 0-1.861 1.018-1.861 2.38 0 .867.307 1.454.307 1.454l-1.24 5.008c-.369 1.486-.056 3.309-.029 3.492.016.11.163.136.23.053.094-.119 1.323-1.563 1.74-3.008.12-.408.679-2.526.679-2.526.335.61 1.315 1.145 2.357 1.145 3.1 0 5.204-2.693 5.204-6.298C13 2.54 10.577 0 6.894 0z"/></g></g></svg>