<svg xmlns="http://www.w3.org/2000/svg" width="16" height="13" viewBox="0 0 16 13"><g><g opacity=".4"><path fill="#2c3e50" d="M16 1.54a6.546 6.546 0 0 1-1.886.516A3.29 3.29 0 0 0 15.557.24a6.593 6.593 0 0 1-2.085.797A3.283 3.283 0 0 0 7.878 4.03 9.321 9.321 0 0 1 1.11.6a3.28 3.28 0 0 0 1.016 4.382 3.269 3.269 0 0 1-1.487-.41v.04a3.285 3.285 0 0 0 2.634 3.22 3.303 3.303 0 0 1-1.483.055 3.287 3.287 0 0 0 3.067 2.28 6.59 6.59 0 0 1-4.861 1.359A9.296 9.296 0 0 0 5.029 13c6.04 0 9.342-5.001 9.342-9.338 0-.143-.003-.284-.01-.425A6.648 6.648 0 0 0 16 1.54z"/></g></g></svg>